<?xml version="1.0"?>
<svg xmlns="http://www.w3.org/2000/svg" xmlns:xlink="http://www.w3.org/1999/xlink" version="1.1" id="Capa_1" x="0px" y="0px" viewBox="0 0 512.003 512.003" style="enable-background:new 0 0 512.003 512.003;" xml:space="preserve" width="512px" height="512px" class=""><g transform="matrix(0.388784 0 0 0.388784 170.08 156.472)"><g>
	<polygon style="fill:#69E781" points="432.764,256.003 79.24,499.813 79.24,260.441 79.24,12.194  " data-original="#A4C2F7" class="" data-old_color="#A4C2F7"/>
	<polygon style="fill:#00AF80" points="79.24,54.227 79.24,457.78 371.811,256.003  " data-original="#E3E7F2" class="" data-old_color="#E3E7F2"/>
	<path style="fill:#E2FFE2" d="M79.24,512.003c-3.234,0.003-6.336-1.281-8.623-3.567c-2.287-2.287-3.57-5.389-3.567-8.623V12.194   c-0.002-4.532,2.51-8.69,6.522-10.797c4.012-2.107,8.862-1.814,12.591,0.761l353.524,243.81c3.299,2.276,5.268,6.028,5.268,10.036   c0,4.008-1.969,7.759-5.268,10.036L86.162,509.849C84.126,511.251,81.712,512.003,79.24,512.003z M91.43,35.408v441.19   l319.863-220.595L91.43,35.408z" data-original="#428DFF" class="active-path" data-old_color="#428DFF"/>
</g></g> </svg>
